<svg aria-hidden="true" version="1.1" xmlns="http://www.w3.org/2000/svg" width="18" height="18" viewBox="0 0 768 768">
	<title></title>
	<g id="icomoon-ignore"></g>
	<path fill="#000" d="M384 544.5q25.5 0 45-19.5t19.5-45-19.5-45-45-19.5-45 19.5-19.5 45 19.5 45 45 19.5zM288 288h192l-96-141zM550.5 288h153q13.5 0 23.25 9t9.75 22.5q-15 60-45 168.75t-37.5 137.25q-13.5 46.5-61.5 46.5h-417q-48 0-61.5-46.5l-81-297q-1.5-3-1.5-9 0-13.5 9.75-22.5t23.25-9h153l139.5-210q9-13.5 27-13.5 19.5 0 27 13.5z"></path>
</svg>
