<svg aria-hidden="true" version="1.1" id="Capa_1" xmlns="http://www.w3.org/2000/svg" x="0px" y="0px" width="31.816px" height="31.816px" viewBox="0 0 31.816 31.816" style="enable-background:new 0 0 31.816 31.816;">
	<g>
		<path d="M10.545,26.18c0,0,7.297-17.681,21.178-20.568c-0.371-0.898,0,0-0.328-1.035c-9.29,0.161-20.104,16.428-20.104,16.428
		S13.693,8.817,29.894,1.454C29.039-0.229,30.287,2.226,29.156,0C11.225,5.414,6.213,23.279,6.213,23.279l-6.12,2.772l1.343,1.474
		l6.203-0.1l-2.902,3.717l0.615,0.674L10.545,26.18z M7.38,25.07c-0.327-0.357-0.301-0.914,0.058-1.24
		c0.358-0.327,0.914-0.303,1.24,0.057s0.302,0.914-0.057,1.241C8.262,25.454,7.707,25.428,7.38,25.07z" />
	</g>
</svg>
