<svg aria-hidden="true" version="1.1" id="Capa_1" xmlns="http://www.w3.org/2000/svg" x="0px" y="0px" width="380.758px" height="380.758px" viewBox="0 0 380.758 380.758" style="enable-background:new 0 0 380.758 380.758;">
	<g>
		<g>
			<path d="M204.593,123.096c-3.13,6.014-26.414,57.632-22.741,58.392c6.276-1.098,38.236,7.976,38.236,7.976
			c5.278-9.879,12.541-22.543,11.782-36.649c-1.214-22.42-20.913-53.954-20.913-53.954s0.292-101.246-68.802-98.817
			C73.039,2.472,51.827,114.619,51.22,127.954c-0.613,13.33,1.816,33.338,1.816,33.338s-6.066,1.215-5.454,6.668
			c0.596,5.465,5.751,10.906,6.061,15.163c0.31,4.262-12.733,3.34-12.121,9.108c0.607,5.757,9.096,7.871,7.876,12.121
			c-1.221,4.238-17.574,8.793-16.967,23.039c0.613,14.258,25.158,27.593,26.664,43.648c1.519,16.068-21.521,26.063-23.64,43.042
			c-2.114,16.979,28.183,27.278,28.498,42.738c0.31,15.46-20.008,23.938-20.008,23.938s53.043-0.911,33.951-61.223
			c-3.34-6.061,30.308-39.107,18.794-70.32c11.514-8.489,0-27.896,0-27.896s11.741-9.389,11.514-25.76S96.69,158.285,96.69,158.285
			s25.754-46.405,33.934-67.318c28.498,10.621,53.353-43.047,53.353-43.047S205.795,84.305,204.593,123.096z" />
			<path d="M260.362,314.665c0-18.788-29.706-35.159-29.706-35.159s4.834-9.155,6.924-20.389l-31.785-11.129
			c0,0-13.026,14.234-13.937,29.1c-0.911,14.854,11.508,54.264,41.226,61.83c-9.996,16.688,4.25,23.039,4.25,23.039
			s26.659,3.328,15.753-27.266C249.141,331.959,260.362,333.465,260.362,314.665z" />
			<path d="M342.979,247.16c-8.373-7.193-46.814-14.281-57.066-18.392c-10.241-4.122-52.396-27.92-79.918-34.377
			c-27.506-6.446-30.781-4.671-33.887,1.95c-3.112,6.598-8.706,30.15-8.706,30.15l2.832,0.993c0,0,7.643-16.979,10.749-23.881
			c0.239-0.537,0.922-0.828,1.95-0.957l-8.128,25.689l2.487,0.876l10.533-26.262c0.607,0.082,1.255,0.198,1.95,0.327l-8.431,26.635
			l2.487,0.877l10.592-26.449c0.671,0.188,1.354,0.361,2.031,0.537l-8.489,26.881l2.487,0.887l10.69-26.413
			c0.776,0.233,1.559,0.479,2.371,0.724l-8.74,27.652l2.487,0.863l10.504-27.137c0.888,0.303,1.775,0.606,2.662,0.91L197.633,237
			l2.499,0.877l10.673-27.115c0.806,0.293,1.611,0.572,2.406,0.865l-8.781,27.732l2.487,0.876l10.393-27.091
			c0.794,0.28,1.6,0.596,2.394,0.887l-8.734,27.629l2.487,0.863l10.626-26.752c0.98,0.386,1.973,0.76,2.931,1.168l-8.629,27.324
			l2.487,0.864l10.661-26.332c0.83,0.351,1.658,0.712,2.465,1.052l-8.502,26.892l2.488,0.876l10.334-25.877
			c0.747,0.339,1.482,0.678,2.184,0.993l-8.664,27.429l2.463,0.854l10.849-26.075c0.759,0.386,1.495,0.747,2.172,1.098
			l-8.699,27.487l2.487,0.842l10.369-25.924c1.19,0.806,1.845,1.459,1.739,1.834c-0.853,3.958-7.59,26.039-7.59,26.039
			s1.027,0.502,2.254,0.992c3.958-4.869,13.896-18.041,24.183-14.841c13.195,4.099,51.392,31.563,62.204,35.626
			C345.057,282.156,354.726,256.84,342.979,247.16z M339.043,263.672c-0.888,2.557-3.679,3.899-6.235,2.988
			c-2.546-0.887-3.889-3.666-2.989-6.224c0.898-2.558,3.689-3.888,6.247-3.013C338.6,258.323,339.942,261.125,339.043,263.672z" />
		</g>
	</g>
</svg>
