<svg aria-hidden="true" version="1.1" id="Capa_1" xmlns="http://www.w3.org/2000/svg" x="0px" y="0px" width="579.271px" height="579.271px" viewBox="0 0 579.271 579.271" style="enable-background:new 0 0 579.271 579.271;">
	<g>
		<path d="M291.528,14.045C274.34,6.75,255.706,2.232,236.25,0.714L233.321,0c0,0-0.152,0.295-0.294,0.554
		C229.446,0.331,225.892,0,222.258,0c-98.03,0-177.47,79.449-177.47,177.453c0,47.082,18.447,89.744,48.368,121.522
		c0,0.071-0.018,0.178-0.018,0.214c17.992,23.607,22.75,55.752,23.26,88.396c0.509,32.644-33.698,129.54-11.572,160.095
		c22.125,30.537,119.548,31.322,128.478,31.59c8.92,0.286,16.84-27.93,0-33.697c-5.777-2.625-7.375-41.59,0-58.984
		c7.366-17.375,45.055-140.754,45.055-140.754l256.125-79.36V72.654L291.528,14.045z M208.82,239.08
		c-38.823,0-70.297-31.474-70.297-70.315c0-38.84,31.475-70.297,70.297-70.297c38.84,0,70.306,31.474,70.306,70.297
		S247.634,239.08,208.82,239.08z" />
	</g>
</svg>
