<svg aria-hidden="true" version="1.1" id="Capa_1" xmlns="http://www.w3.org/2000/svg" xmlns:xlink="http://www.w3.org/1999/xlink" x="0px" y="0px" viewBox="0 0 31.1 31.1" style="enable-background:new 0 0 31.1 31.1;">
	<path d="M14,10.1c-6.5,0-11.8,3.4-11.8,7.7s5.3,7.7,11.8,7.7c6.5,0,11.8-3.4,11.8-7.7S20.5,10.1,14,10.1z M14,24.6
	c-5.4,0-9.9-3.1-9.9-6.8c0-3.8,4.4-6.8,9.9-6.8c5.4,0,9.9,3.1,9.9,6.8S19.5,24.6,14,24.6z" />
	<path d="M17,4.7C10.5,4.7,5.2,8.4,5.2,13s5.3,8.4,11.8,8.4c6.5,0,11.8-3.8,11.8-8.4S23.5,4.7,17,4.7z M17,20.5
	c-5.4,0-9.9-3.4-9.9-7.5c0-4.1,4.4-7.5,9.9-7.5c5.4,0,9.9,3.4,9.9,7.5S22.5,20.5,17,20.5z" />
</svg>
