<svg aria-hidden="true" version="1.1" xmlns="http://www.w3.org/2000/svg" width="512" height="512" viewBox="0 0 512 512">
	<title></title>
	<g id="icomoon-ignore"></g>
	<path d="M256 72.303c59.861 0 66.951 0.262 90.492 1.312 21.879 0.962 33.694 4.638 41.57 7.701 10.414 4.026 17.941 8.927 25.73 16.715 7.877 7.877 12.69 15.316 16.803 25.73 3.062 7.877 6.738 19.778 7.702 41.571 1.050 23.63 1.312 30.719 1.312 90.492s-0.262 66.951-1.312 90.492c-0.962 21.879-4.638 33.694-7.702 41.57-4.026 10.414-8.927 17.941-16.716 25.729-7.877 7.877-15.315 12.69-25.73 16.803-7.877 3.062-19.778 6.738-41.57 7.702-23.63 1.050-30.719 1.312-90.492 1.312s-66.951-0.262-90.492-1.312c-21.879-0.962-33.694-4.638-41.571-7.702-10.415-4.026-17.941-8.927-25.73-16.716-7.877-7.877-12.69-15.315-16.803-25.73-3.062-7.877-6.739-19.778-7.701-41.57-1.050-23.63-1.312-30.719-1.312-90.492s0.262-66.951 1.312-90.492c0.962-21.879 4.638-33.694 7.701-41.571 4.026-10.415 8.927-17.941 16.715-25.73 7.877-7.877 15.316-12.69 25.73-16.803 7.877-3.062 19.778-6.739 41.571-7.701 23.542-1.050 30.631-1.312 90.492-1.312zM256 31.956c-60.825 0-68.439 0.262-92.331 1.312-23.804 1.050-40.17 4.901-54.348 10.414-14.79 5.776-27.305 13.39-39.733 25.905-12.515 12.428-20.128 24.942-25.905 39.645-5.513 14.265-9.364 30.544-10.415 54.348-1.050 23.98-1.312 31.594-1.312 92.417s0.262 68.439 1.312 92.331c1.050 23.805 4.901 40.17 10.415 54.348 5.776 14.791 13.39 27.305 25.905 39.733 12.428 12.428 24.942 20.128 39.645 25.818 14.265 5.513 30.544 9.364 54.348 10.414 23.892 1.050 31.506 1.312 92.331 1.312s68.439-0.262 92.331-1.312c23.805-1.050 40.17-4.901 54.348-10.414 14.703-5.688 27.218-13.39 39.645-25.818s20.128-24.942 25.818-39.645c5.513-14.265 9.364-30.544 10.414-54.348 1.050-23.892 1.312-31.506 1.312-92.331s-0.262-68.439-1.312-92.331c-1.050-23.804-4.901-40.17-10.414-54.348-5.513-14.878-13.128-27.393-25.642-39.82-12.428-12.428-24.942-20.128-39.645-25.818-14.265-5.513-30.544-9.364-54.348-10.415-23.98-1.137-31.594-1.401-92.417-1.401v0z"></path>
	<path d="M256 140.916c-63.537 0-115.084 51.548-115.084 115.084s51.548 115.084 115.084 115.084 115.084-51.548 115.084-115.084c0-63.537-51.548-115.084-115.084-115.084zM256 330.651c-41.22 0-74.651-33.431-74.651-74.651s33.431-74.651 74.651-74.651c41.22 0 74.651 33.431 74.651 74.651s-33.431 74.651-74.651 74.651z"></path>
	<path d="M402.503 136.365c0 14.839-12.029 26.868-26.868 26.868s-26.868-12.029-26.868-26.868c0-14.838 12.029-26.868 26.868-26.868s26.868 12.029 26.868 26.868z"></path>
</svg>
