<svg aria-hidden="true" version="1.1" xmlns="http://www.w3.org/2000/svg" width="768" height="768" viewBox="0 0 768 768">
	<title></title>
	<g id="icomoon-ignore"></g>
	<path fill="#000" d="M608 544h-224c-35.296 0-64 28.704-64 64s28.704 64 64 64h224c35.296 0 64-28.704 64-64s-28.704-64-64-64z"></path>
	<path fill="#000" d="M608 320h-224c-35.296 0-64 28.704-64 64s28.704 64 64 64h224c35.296 0 64-28.704 64-64s-28.704-64-64-64z"></path>
	<path fill="#000" d="M608 96h-224c-35.296 0-64 28.704-64 64s28.704 64 64 64h224c35.296 0 64-28.704 64-64s-28.704-64-64-64z"></path>
	<path fill="#000" d="M240 608c0 44.182-35.817 80-80 80s-80-35.817-80-80c0-44.183 35.817-80 80-80s80 35.817 80 80z"></path>
	<path fill="#000" d="M240 384c0 44.183-35.817 80-80 80s-80-35.817-80-80c0-44.183 35.817-80 80-80s80 35.817 80 80z"></path>
	<path fill="#000" d="M240 160c0 44.183-35.817 80-80 80s-80-35.817-80-80c0-44.183 35.817-80 80-80s80 35.817 80 80z"></path>
</svg>
