<svg aria-hidden="true" version="1.1" id="Capa_1" xmlns="http://www.w3.org/2000/svg" x="0px" y="0px" width="369.618px" height="369.618px" viewBox="0 0 369.618 369.618" style="enable-background:new 0 0 369.618 369.618;">
	<g>
		<g>
			<path d="M146.595,239.177c6.48-6.445,7.175-16.395,2.335-23.738l11.607-11.573c7.345,4.834,17.282,4.192,23.763-2.253
			c6.48-6.469,7.158-16.395,2.318-23.751l10.959-10.93c7.357,4.852,17.282,4.209,23.775-2.248c6.457-6.469,7.146-16.395,2.3-23.745
			l12.401-12.354c7.345,4.852,17.294,4.209,23.739-2.271c6.492-6.446,7.182-16.372,2.336-23.734l42.785-42.627
			c0,0,5.908-1.448,8.956-2.038c13.487-2.581,38.616-7.397,36.794-33.98c-0.7-10.27-4.309-16.692-10.766-19.133
			c-10.673-4.017-24.919,5.091-30.805,9.721l-0.116-0.07L0,322.411l4.028,4.053L310.611,20.897c0,0,18.87-13.312,27.114-10.212
			c3.877,1.483,6.188,6.072,6.702,13.651c1.319,19.384-14.946,24.16-31.715,27.371c-4.998,0.958-10.276,2.738-10.276,2.738
			l-46.591,46.434l2.229,5.786c2.698,5.021,1.974,11.374-2.253,15.595c-4.239,4.233-10.614,4.91-15.612,2.195l-5.267-2.75
			l-17.469,17.434l2.125,5.885c2.709,5.021,1.985,11.374-2.254,15.606c-4.227,4.233-10.591,4.922-15.612,2.219l-5.523-2.522
			l-16.085,16.027l2.429,5.605c2.691,5.021,1.973,11.374-2.248,15.612c-4.233,4.227-10.62,4.904-15.618,2.219l-4.875-3.176
			l-17.685,17.609l2.721,5.348c2.703,4.998,1.974,11.373-2.248,15.578c-4.601,4.6-13.259,3.293-16.879,1.471
			c-2.335-0.467-4.233-1.846-4.233-1.846l-84.507,84.204l4.058,4.063l81.833-81.576
			C130.183,246.266,140.131,245.623,146.595,239.177z" />
			<path d="M363.8,67.191c-5.219-5.208-14.444-7.158-24.696,3.077L68.095,340.406l4.221,4.239l270.99-270.133
			c6.259-6.241,12.028-7.321,16.255-3.094c4.683,4.694,6.014,14.678,0.643,20.038C348.562,103.063,89.189,361.589,89.189,361.589
			l4.222,4.227c0,0,259.354-258.502,271.031-270.115C372.267,87.871,370.538,73.952,363.8,67.191z" />
		</g>
	</g>
</svg>
