<!-- Generated by IcoMoon.io -->
<svg aria-hidden="true" version="1.1" xmlns="http://www.w3.org/2000/svg" width="512" height="512" viewBox="0 0 512 512">
	<title>Pinterest</title>
	<g id="icomoon-ignore"></g>
	<path d="M256 34.2c-122.5 0-221.8 99.3-221.8 221.8 0 94 58.5 174.2 141 206.5-1.9-17.5-3.7-44.5 0.8-63.6 4-17.3 26-110.2 26-110.2s-6.6-13.3-6.6-32.9c0-30.8 17.9-53.9 40.1-53.9 18.9 0 28.1 14.2 28.1 31.2 0 19-12.1 47.5-18.4 73.8-5.3 22.1 11 40.1 32.8 40.1 39.4 0 69.7-41.6 69.7-101.6 0-53.1-38.2-90.2-92.6-90.2-63.1 0-100.1 47.3-100.1 96.3 0 19.1 7.3 39.5 16.5 50.6 1.8 2.2 2.1 4.1 1.5 6.4-1.7 7-5.4 22.1-6.2 25.2-1 4.1-3.2 4.9-7.4 3-27.7-12.9-45-53.4-45-85.9 0-70 50.8-134.2 146.5-134.2 76.9 0 136.7 54.8 136.7 128.1 0 76.4-48.2 138-115.1 138-22.5 0-43.6-11.7-50.8-25.5 0 0-11.1 42.3-13.8 52.7-5 19.3-18.5 43.4-27.6 58.1 20.8 6.4 42.8 9.9 65.7 9.9 122.5 0 221.8-99.3 221.8-221.8 0-122.6-99.3-221.9-221.8-221.9z"></path>
</svg>
