<!-- Generated by IcoMoon.io -->
<svg aria-hidden="true" version="1.1" xmlns="http://www.w3.org/2000/svg" width="512" height="512" viewBox="0 0 512 512">
	<title></title>
	<g id="icomoon-ignore"></g>
	<path d="M112.5 224c61.856 0 112 50.145 112 112s-50.144 112-112 112-112-50.144-112-112l-0.5-16c0-123.712 100.288-224 224-224v64c-42.737 0-82.917 16.643-113.137 46.863-5.817 5.818-11.126 12.008-15.915 18.51 5.719-0.9 11.58-1.373 17.552-1.373zM400.5 224c61.855 0 112 50.145 112 112s-50.145 112-112 112-112-50.144-112-112l-0.5-16c0-123.712 100.288-224 224-224v64c-42.737 0-82.917 16.643-113.137 46.863-5.818 5.818-11.127 12.008-15.916 18.51 5.72-0.9 11.58-1.373 17.553-1.373z"></path>
</svg>
