<svg aria-hidden="true" version="1.1" id="Capa_1" xmlns="http://www.w3.org/2000/svg" x="0px" y="0px" width="382.671px" height="382.671px" viewBox="0 0 382.671 382.671" style="enable-background:new 0 0 382.671 382.671;">
	<g>
		<g>
			<path d="M173.439,119.604c22.385-0.969,29.45-11.297,31.528-16.009c2.103,4.712,9.167,15.04,31.54,16.009
			c9.459-0.911,24.744-1.086,24.744-15.268c-9.108,6.551-25.456,3.094-28.551-9.458c-2.358-12.01-22.934-19.11-27.733-10.095
			c-4.77-9.015-25.345-1.915-27.715,10.095c-3.094,12.553-19.442,16.009-28.539,9.458
			C148.713,118.518,163.992,118.693,173.439,119.604z" />
			<path d="M127.25,143.805c0,0-8.897,17.089-15.414,29.823c1.43,2.89,2.727,5.488,3.731,7.566l13.429-38.931L127.25,143.805z" />
			<path d="M105.069,187.126c-5.494,10.638-17.066,15.099-17.901,15.414c-3.888,0.875-7.222,4.063-8.553,8.372
			c-0.905,2.943-0.742,6.084,0.467,8.758c1.244,2.779,3.433,4.775,6.171,5.604c0.887,0.269,1.792,0.397,2.727,0.421
			c4.805,0.023,9.266-3.504,10.819-8.63c0-0.022,0.012-0.046,0.012-0.046c0.012,0.023,0.029,0.058,0.029,0.058l10.626-30.933
			l0.012-0.012l-3.193-1.6C105.595,185.965,105.151,186.899,105.069,187.126z M95.535,216.074c-1.121,3.69-4.221,6.235-7.532,6.212
			c-0.595,0-1.185-0.094-1.746-0.257c-1.792-0.549-3.229-1.868-4.052-3.737c-0.876-1.938-0.981-4.215-0.327-6.398
			c1.15-3.667,4.233-6.212,7.549-6.212c0.596,0,1.18,0.093,1.746,0.28c1.781,0.537,3.217,1.868,4.052,3.736
			C96.113,211.613,96.218,213.902,95.535,216.074z" />
			<path d="M112.543,186.076l9.657,30.605c0.053,0.188,0.087,0.386,0.146,0.607c1.437,5.221,5.833,8.875,10.702,8.922
			c0.87,0,1.757-0.094,2.616-0.327c2.75-0.771,4.986-2.686,6.317-5.43c1.279-2.651,1.542-5.757,0.719-8.77
			c-1.232-4.438-4.607-7.754-8.589-8.665c-1.244-0.525-12.115-5.278-17.183-15.834c-0.572-1.781-21.772-43.737-21.772-43.737
			l-1.699-1.471l13.569,41.302L112.543,186.076z M126.111,209.99c0.888-1.81,2.371-3.118,4.163-3.631
			c0.537-0.14,1.098-0.222,1.67-0.222c3.352,0.035,6.411,2.674,7.45,6.411c0.601,2.243,0.432,4.485-0.491,6.399
			c-0.881,1.822-2.365,3.118-4.145,3.62c-0.566,0.14-1.127,0.21-1.699,0.21c-3.334-0.023-6.411-2.639-7.438-6.398
			C125.025,214.183,125.201,211.894,126.111,209.99z M110.208,179.139c0.993,0.012,1.792,0.823,1.781,1.828
			c0,0.993-0.823,1.787-1.804,1.787c-0.993,0-1.804-0.817-1.792-1.81C108.392,179.928,109.203,179.139,110.208,179.139z" />
			<path d="M370.7,199.084c0.105-2.499,0.374-4.951,0.374-7.485c0-2.248-0.245-4.437-0.339-6.673
			c0.899-4.326,3.06-8.752,5.149-12.839c2.067-4.572,4.204-8.659,4.659-10.994c1.903-7.66-2.568-12.267-7.473-15.256
			c-3.492-2.161-7.17-3.573-9.482-5.179c-1.296-4.396-2.861-8.676-4.496-12.933c-0.467-4.595-0.023-9.604,0.374-14.193
			c0.596-5.062,1.39-9.675,1.133-12.057c-2.184-13.452-16.383-12.074-23.039-13.75c-2.662-3.719-5.371-7.38-8.279-10.883
			c-4.401-8.262-4.775-21.177-7.169-25.036c-6.002-12.401-19.35-6.048-26.075-5.611c-3.737-2.691-7.556-5.161-11.479-7.543
			c-6.552-6.901-11.549-18.176-14.818-21.562c-5.407-5.71-11.841-4.239-16.897-2.032c-3.701,1.605-6.9,3.97-9.54,5.155
			c-4.601-1.36-9.271-2.622-14.024-3.625C221,12.396,212.978,3.148,208.879,1.396c-7.006-3.223-12.553-0.351-16.634,3.392
			c-2.949,2.978-5.208,6.288-7.304,8.25c-4.735,0.192-9.447,0.467-14.071,1.016c-9.295-1.062-20.126-7.625-24.609-7.736
			c-7.725-0.958-12.115,3.375-14.603,8.705c-1.874,3.708-2.954,7.555-4.35,10.007c-4.344,1.722-8.536,3.603-12.688,5.611
			c-9.353,1.699-21.485-0.274-26.092,0.619c-7.748,1.401-10.019,7.596-10.93,13.037c-0.677,4.017-0.444,8.046-0.893,10.889
			c-3.626,3.077-7.176,6.229-10.539,9.593c-7.964,4.735-20.47,6.218-24.031,8.833c-11.765,7.152-4.484,19.816-3.433,26.536
			c-2.365,3.958-4.578,7.999-6.65,12.15c-2.844,3.439-7.042,6.323-10.714,9.026c-4.017,3.036-7.853,5.605-9.383,7.415
			c-5.395,5.833-3.386,12.109-0.66,17.001c2.079,3.585,4.519,6.54,5.821,9.026c-0.951,4.595-1.611,9.266-2.207,13.943
			c-3.784,8.693-11.707,17.685-13.715,21.964c-4.367,12.787,8.478,18.38,13.592,23.016c0.584,4.811,1.255,9.645,2.236,14.351
			c-0.444,9.214-6.014,20.283-5.728,24.674c-0.444,13.756,14.112,14.573,20.353,17.353c2.021,4.156,4.21,8.197,6.551,12.167
			c1.355,4.274,1.483,9.365,1.723,13.942c0.345,5.021,0.409,9.646,1.086,11.911c1.938,7.683,8.279,9.435,13.873,9.832
			c4.151,0.245,7.975-0.198,10.795,0.069c3.293,3.27,6.796,6.377,10.322,9.389c5.354,7.742,8.25,19.828,10.941,23.576
			c4.648,6.154,10.889,6.294,16.272,4.893c4.04-1.214,7.654-3.059,10.416-3.748c4.186,2.043,8.431,3.982,12.769,5.733
			c3.661,2.499,6.937,6.224,9.844,9.855c3.311,3.877,6.253,7.298,8.192,8.7c3.129,2.276,6.23,2.977,9.073,2.744
			c2.896-0.468,5.535-1.846,7.906-3.504c3.392-2.336,6.154-5.161,8.524-6.656c4.601,0.584,9.266,0.899,13.989,1.121
			c8.991,2.99,18.643,10.404,23.074,11.795c7.485,2.639,12.424-1.904,15.822-6.236c2.452-3.234,4.169-6.68,5.932-8.922
			c4.683-0.98,9.271-2.229,13.826-3.572c9.365-0.164,20.891,3.9,25.468,3.736c7.684-0.537,11.21-5.722,12.997-10.977
			c1.19-4.04,1.6-8.104,2.533-10.801c3.877-2.324,7.684-4.707,11.374-7.299c4.181-1.833,9.225-2.639,14.024-3.082
			c5.056-0.689,9.539-1.25,11.746-2.114c7.416-2.674,8.922-8.815,8.688-14.608c-0.094-4.156-0.97-8.057-0.888-10.859
			c2.92-3.434,5.629-7.029,8.291-10.695c1.611-1.355,3.352-2.64,5.348-3.714c2.184-1.401,4.543-2.663,6.819-3.784
			c4.566-2.253,8.887-4.109,10.731-5.616c10.055-9.19,1.215-20.283-1.027-26.775c1.693-4.344,3.328-8.7,4.683-13.195
			c4.565-8.104,15.052-15.378,16.896-19.454C387.259,212.116,374.904,204.49,370.7,199.084z M192.175,350.758
			c-87.753,0-159.165-71.394-159.165-159.159c0-87.776,71.412-159.176,159.165-159.176c87.771,0,159.165,71.4,159.165,159.176
			C351.34,279.364,279.946,350.758,192.175,350.758z" />
			<path d="M193.267,41.046c-82.901,0-150.331,67.424-150.331,150.319c0,82.884,67.43,150.296,150.331,150.296
			c82.873,0,150.296-67.424,150.296-150.296C343.562,108.458,276.14,41.046,193.267,41.046z M193.267,332.052
			c-77.583,0-140.703-63.104-140.703-140.687c0-77.583,63.121-140.721,140.703-140.721c77.571,0,140.686,63.126,140.686,140.721
			C333.94,268.925,270.838,332.052,193.267,332.052z" />
			<polygon points="286.555,108.843 280.774,103.045 199.467,184.365 115.264,100.161 109.478,105.936 193.681,190.139
			112.385,271.446 118.159,277.239 199.467,195.943 277.879,274.343 283.671,268.551 205.259,190.139 		" />
			<path d="M293.095,135.94c0,0,11.49-0.123,13.206-0.146c1.74,0,2.966-0.812,2.687-3.41c-2.219,0.023-17.75-0.152-19.361-0.14
			c-1.6,0.023-3.422,0.467-3.41,2.079c0,0.023,0.012,0.181,0.012,0.374l0.012,2.446l0.993,103.185c0,1.693,0.012,2.686,0.012,2.814
			c0.023,1.588,1.833,1.984,3.444,1.984c1.6,0,17.154-0.467,19.35-0.49c0.245-2.615-1.005-3.386-2.744-3.386
			c-1.717,0.023-13.207,0.151-13.207,0.151l-1.705-1.133v-0.852l16.757-0.176l-0.023-2.195l-16.757,0.164l-0.023-1.869l16.769-0.163
			l-0.023-2.195l-16.757,0.163l-0.012-1.821l16.745-0.187l-0.012-2.16l-16.757,0.151l-0.012-1.519l16.769-0.174l-0.035-2.184
			l-16.745,0.151l-0.012-1.821l16.746-0.152l-0.012-2.172l-16.769,0.152v-1.53l16.745-0.187l-0.023-2.184l-16.745,0.175
			l-0.012-1.821l16.757-0.164l-0.035-2.184l-16.733,0.176l-0.023-1.916l16.745-0.164l-0.023-2.172l-16.745,0.164l-0.012-1.822
			l16.745-0.175l-0.012-2.184l-16.757,0.164l-0.012-1.915l16.745-0.175l-0.023-2.137l-16.733,0.164l-0.035-1.845l16.745-0.151
			l-0.023-2.184l-16.732,0.164l-0.012-1.541l16.732-0.164l-0.023-2.195l-16.721,0.164l-0.023-1.822l16.744-0.164l-0.012-2.172
			l-16.744,0.169l-0.023-1.903l16.732-0.169v-2.184l-16.756,0.175l-0.012-1.815l16.733-0.181l-0.012-2.189l-16.745,0.169
			l-0.023-1.781l16.757-0.169l-0.023-2.184l-16.745,0.164l-0.023-1.816l16.757-0.169l-0.023-2.201l-16.757,0.169l-0.012-1.874
			l16.757-0.169l-0.023-2.178l-16.757,0.158l-0.012-1.828l16.757-0.158l-0.023-2.189l-16.745,0.169l-0.023-1.927l16.745-0.169
			l-0.011-2.195l-16.758,0.164l-0.012-1.815l16.758-0.169l-0.023-2.16l-16.757,0.14l-0.023-1.53l16.769-0.158l-0.012-2.189
			l-16.757,0.158l-0.012-1.816l16.733-0.181v-2.166l-16.757,0.158l-0.023-1.886l16.733-0.181l-0.012-2.178l-16.733,0.158
			l-0.023-1.81l16.745-0.175l-0.012-2.178l-16.745,0.169l-0.023-1.903l16.745-0.181l-0.012-2.172l-16.757,0.164v-0.525
			L293.095,135.94z" />
			<path d="M249.959,266.706c-11.304,12.168-31.026,23.086-57.626,32.766c-3.935-2.055-7.164-3.619-8.262-4.508
			c-2.68-2.16-10.369-6.655-10.369-6.655s1.617-2.079,0.934-2.382c-0.683-0.327-29.14-13.989-29.14-13.989s-6.708,5.441-2.108,7.729
			c2.803,1.379,25.9,12.846,43.649,21.674c-0.292,0.093-0.59,0.209-0.876,0.291c-2.364,0.713-0.695,3.818,3.9,5.337
			c1.827,0.28,4.256,0.046,7.053-0.631c6.411,3.2,10.726,5.325,10.726,5.325s2.02,0.163,1.576-1.332
			c-2.043-1.891-4.624-3.725-7.362-5.441c19.308-6.539,49.54-25.666,51.549-27.955C256.112,274.109,250.8,263.67,249.959,266.706z
			 M192.198,304.493c-0.654,0-1.191-0.537-1.191-1.191s0.525-1.191,1.18-1.203c0.66,0,1.197,0.549,1.208,1.191
			C193.383,303.956,192.87,304.493,192.198,304.493z M249.41,274.554c-0.653,0-1.18-0.538-1.18-1.191
			c0-0.643,0.515-1.191,1.18-1.191c0.653-0.023,1.191,0.537,1.191,1.18C250.612,274.016,250.075,274.554,249.41,274.554z" />
		</g>
	</g>
</svg>
