<svg aria-hidden="true" version="1.1" id="Capa_1" xmlns="http://www.w3.org/2000/svg" x="0px" y="0px" width="31.01px" height="31.01px" viewBox="0 0 31.01 31.01" style="enable-background:new 0 0 31.01 31.01;">
	<g>
		<path d="M1.304,25.347c1.029-1.605,6.247-6.712,8.078-7.522c0.951-0.301,4.341-3.274,3.842-4.472
		c-0.175-0.452,1.452,0.435,1.452,0.435l0.366-0.341c-0.797-0.588-4.159-2.661-8.596,0.373C6.19,13.827,5.8,13.59,5.837,13.431
		c3.147-3.3,10.047-2.736,10.047-2.736s0.256-0.485,0.511-0.477c0.236,0.009,1.292,0.506,1.456,0.584l1.012-0.941l-0.875-0.938
		l0.329-0.308l0.875,0.939l0.247-0.23l-0.875-0.939l0.331-0.308l0.875,0.939l0.346-0.322l-0.895-0.961l0.329-0.308l0.894,0.958
		l0.248-0.23l-0.894-0.959l0.329-0.307l0.895,0.959l0.312-0.292L20.44,6.596l0.33-0.307l0.893,0.958l0.247-0.23l-0.893-0.959
		l0.33-0.308l0.893,0.959l0.281-0.261L21.627,5.49l0.33-0.306l0.894,0.958l0.248-0.23l-0.894-0.959l0.33-0.307l0.894,0.958
		l0.297-0.277L22.831,4.37l0.33-0.307l0.894,0.958l0.247-0.231l-0.894-0.958l0.331-0.308l0.893,0.959l0.297-0.276l-0.894-0.958
		l0.33-0.308l0.893,0.959l0.247-0.23L24.612,2.71l0.33-0.307l0.893,0.959l0.38-0.353L25.322,2.05l0.329-0.308l0.894,0.959
		l0.247-0.23l-0.894-0.959l0.331-0.307l0.893,0.959l0.511-0.477l0.415,0.445l1.316-1.227l0.008,0.008
		c0.314-0.188,0.839-0.03,1.232,0.393c0.393,0.421,0.514,0.957,0.303,1.257l0.009,0.008L29.6,3.797l0.368,0.396l-0.51,0.476
		l0.893,0.958l-0.33,0.307l-0.894-0.958l-0.248,0.23l0.894,0.959l-0.33,0.306L28.55,5.517l-0.38,0.354l0.893,0.958l-0.329,0.307
		l-0.894-0.96l-0.248,0.231l0.894,0.958l-0.33,0.308l-0.892-0.958L26.967,6.99l0.893,0.958L27.53,8.256l-0.893-0.959l-0.249,0.23
		l0.893,0.958l-0.33,0.307l-0.891-0.958l-0.297,0.277l0.892,0.958l-0.33,0.307l-0.893-0.958l-0.248,0.23l0.893,0.958l-0.33,0.307
		l-0.892-0.959l-0.28,0.261l0.893,0.958l-0.329,0.307l-0.894-0.958l-0.247,0.23l0.894,0.958l-0.33,0.308l-0.894-0.958l-0.312,0.292
		l0.893,0.958l-0.33,0.307l-0.893-0.958l-0.247,0.23l0.893,0.958l-0.33,0.308l-0.893-0.958l-0.346,0.321l0.912,0.979l-0.33,0.308
		l-0.912-0.978l-0.248,0.23l0.912,0.979l-0.329,0.306l-0.912-0.979l-2.714,2.528l0.195,0.278l-1.451,1.353
		c0,0,0.769,1.684,0.33,1.478c-1.161-0.583-4.366,2.588-4.734,3.516c-0.939,1.769-6.403,6.611-8.078,7.523
		c-1.658,0.904-2.367,1.919-3.93,0.21C-0.779,27.572,0.283,26.938,1.304,25.347z" />
	</g>
</svg>
